<?xml version="1.0" encoding="UTF-8"?>
<svg width="1069px" height="141px" viewBox="0 0 1069 141" version="1.1" xmlns="http://www.w3.org/2000/svg" xmlns:xlink="http://www.w3.org/1999/xlink">
    <!-- Generator: Sketch 42 (36781) - http://www.bohemiancoding.com/sketch -->
    <title>Colored Long</title>
    <desc>Created with Sketch.</desc>
    <defs>
        <linearGradient x1="-3.10556529%" y1="50%" x2="69.7164234%" y2="50%" id="linearGradient-1">
            <stop stop-color="#673AB7" offset="0%"></stop>
            <stop stop-color="#3F51B5" offset="100%"></stop>
        </linearGradient>
    </defs>
    <g id="Page-1" stroke="none" stroke-width="1" fill="none" fill-rule="evenodd">
        <g id="Colored-Long" transform="translate(0.000000, -13.000000)">
            <path d="M76,25 L76,57.7919556 L35.0530612,80.5769764 L76,103.51595 L76,136 L0,94.1248266 L0,66.7212205 L76,25 Z M96,136 L96,103.208044 L136.791837,80.4230236 L96,57.4840499 L96,25 L172,66.7212205 L172,94.2787795 L96,136 Z M247.72508,125.427804 C248.046625,125.427804 248.368166,125.487239 248.689711,125.606111 C249.011256,125.724984 249.319398,125.929705 249.614148,126.220282 L255,131.807253 C252.642003,134.845101 249.687853,137.136661 246.13746,138.682001 C242.587067,140.227342 238.386948,141 233.536977,141 C229.088938,141 225.103179,140.253757 221.579582,138.761249 C218.055985,137.268741 215.06834,135.208318 212.616559,132.579919 C210.164779,129.95152 208.282429,126.834471 206.969453,123.228677 C205.656478,119.622883 205,115.706759 205,111.480188 C205,107.174368 205.710068,103.218621 207.130225,99.6128274 C208.550382,96.0070337 210.546611,92.896588 213.118971,90.2813969 C215.691331,87.6662059 218.772758,85.6321989 222.363344,84.179315 C225.95393,82.7264311 229.906195,82 234.220257,82 C236.417482,82 238.487397,82.1915136 240.430064,82.5745467 C242.372732,82.9575797 244.188094,83.4858932 245.876206,84.159503 C247.564317,84.8331128 249.118428,85.6453948 250.538585,86.5963734 C251.958742,87.547352 253.218108,88.5775633 254.31672,89.6870383 L249.734727,95.7494963 C249.439977,96.1193213 249.091642,96.4561212 248.689711,96.759906 C248.287779,97.0636908 247.725084,97.2155809 247.001608,97.2155809 C246.51929,97.2155809 246.063775,97.1099182 245.635048,96.8985897 C245.206322,96.6872611 244.750806,96.4297083 244.268489,96.1259234 C243.786171,95.8221386 243.25697,95.4919427 242.680868,95.1353257 C242.104767,94.7787088 241.421494,94.4485128 240.631029,94.144728 C239.840564,93.8409432 238.916136,93.5833904 237.857717,93.3720618 C236.799298,93.1607332 235.560029,93.0550705 234.139871,93.0550705 C231.889056,93.0550705 229.832539,93.4645135 227.970257,94.2834117 C226.107976,95.1023099 224.500275,96.2976192 223.147106,97.8693754 C221.793938,99.4411317 220.748932,101.369476 220.012058,103.654466 C219.275184,105.939456 218.906752,108.548004 218.906752,111.480188 C218.906752,114.438788 219.315376,117.067148 220.132637,119.365346 C220.949897,121.663544 222.06189,123.598492 223.46865,125.170248 C224.875409,126.742005 226.516604,127.937314 228.392283,128.756212 C230.267962,129.57511 232.277588,129.984553 234.421222,129.984553 C235.653811,129.984553 236.779202,129.925118 237.797428,129.806246 C238.815654,129.687373 239.766877,129.489256 240.651125,129.211887 C241.535374,128.934518 242.36602,128.564699 243.143087,128.102418 C243.920154,127.640136 244.710607,127.052388 245.514469,126.339154 C245.836014,126.074993 246.18435,125.857064 246.559486,125.685359 C246.934621,125.513655 247.323149,125.427804 247.72508,125.427804 Z M279.079245,99 C282.196242,99 285.035836,99.4960973 287.598113,100.488307 C290.16039,101.480516 292.359425,102.901768 294.195283,104.752105 C296.031141,106.602441 297.457542,108.848287 298.474528,111.48971 C299.491515,114.131133 300,117.101013 300,120.399439 C300,123.724681 299.491515,126.721377 298.474528,129.389616 C297.457542,132.057856 296.031141,134.323814 294.195283,136.187558 C292.359425,138.051303 290.16039,139.485963 287.598113,140.491581 C285.035836,141.497199 282.196242,142 279.079245,142 C275.935833,142 273.076428,141.497199 270.500943,140.491581 C267.925459,139.485963 265.706613,138.051303 263.84434,136.187558 C261.982066,134.323814 260.542458,132.057856 259.525472,129.389616 C258.508485,126.721377 258,123.724681 258,120.399439 C258,117.101013 258.508485,114.131133 259.525472,111.48971 C260.542458,108.848287 261.982066,106.602441 263.84434,104.752105 C265.706613,102.901768 267.925459,101.480516 270.500943,100.488307 C273.076428,99.4960973 275.935833,99 279.079245,99 Z M279.580952,132 C282.468268,132 284.593247,131.00822 285.955952,129.024631 C287.318658,127.041041 288,124.026293 288,119.980296 C288,115.934298 287.318658,112.926118 285.955952,110.955665 C284.593247,108.985212 282.468268,108 279.580952,108 C276.612684,108 274.440483,108.985212 273.064286,110.955665 C271.688088,112.926118 271,115.934298 271,119.980296 C271,124.026293 271.688088,127.041041 273.064286,129.024631 C274.440483,131.00822 276.612684,132 279.580952,132 Z M308,141 L308,99.6381766 L315.669774,99.6381766 C317.214389,99.6381766 318.226362,100.329528 318.705726,101.712251 L319.38482,103.945869 C320.077234,103.227917 320.796268,102.569804 321.541944,101.97151 C322.28762,101.373216 323.093205,100.854703 323.958722,100.415954 C324.824239,99.9772058 325.75632,99.6315302 326.754993,99.3789174 C327.753667,99.1263045 328.852191,99 330.050599,99 C332.553941,99 334.624492,99.6448179 336.262317,100.934473 C337.900141,102.224128 339.145136,103.945858 339.997337,106.099715 C340.68975,104.823355 341.535281,103.733148 342.533955,102.82906 C343.532628,101.924972 344.611179,101.193735 345.76964,100.635328 C346.928102,100.07692 348.153123,99.6647687 349.44474,99.3988604 C350.736358,99.1329521 352.021299,99 353.299601,99 C355.669785,99 357.773626,99.3523232 359.611185,100.05698 C361.448744,100.761637 362.986678,101.785368 364.225033,103.128205 C365.463388,104.471042 366.402127,106.119648 367.041278,108.074074 C367.680429,110.0285 368,112.242153 368,114.7151 L368,141 L355.616511,141 L355.616511,114.7151 C355.616511,110.433977 353.77898,108.293447 350.103862,108.293447 C348.42609,108.293447 347.034626,108.845199 345.929427,109.948718 C344.824229,111.052237 344.271638,112.641015 344.271638,114.7151 L344.271638,141 L331.888149,141 L331.888149,114.7151 C331.888149,112.348516 331.422109,110.686614 330.490013,109.729345 C329.557918,108.772075 328.186427,108.293447 326.375499,108.293447 C325.256985,108.293447 324.198407,108.546056 323.199734,109.051282 C322.20106,109.556508 321.262321,110.234564 320.383489,111.08547 L320.383489,141 L308,141 Z M389.757576,104.873016 C391.400682,103.153431 393.265983,101.744714 395.353535,100.646825 C397.441088,99.5489363 399.925912,99 402.808081,99 C404.98991,99 407.010092,99.4761857 408.868687,100.428571 C410.727282,101.380957 412.32996,102.756605 413.676768,104.555556 C415.023576,106.354506 416.080804,108.556865 416.848485,111.162698 C417.616165,113.768532 418,116.724851 418,120.031746 C418,123.127 417.562294,125.984114 416.686869,128.603175 C415.811443,131.222235 414.585866,133.497345 413.010101,135.428571 C411.434336,137.359798 409.548833,138.867719 407.353535,139.952381 C405.158238,141.037042 402.727286,141.579365 400.060606,141.579365 C397.878777,141.579365 396.047145,141.275135 394.565657,140.666667 C393.084168,140.058198 391.73738,139.2381 390.525253,138.206349 L390.525253,154 L378,154 L378,99.7936508 L385.757576,99.7936508 C387.319873,99.7936508 388.343432,100.481475 388.828283,101.857143 L389.757576,104.873016 Z M390,129.236842 C390.907412,130.236847 391.892587,130.947366 392.955556,131.368421 C394.018524,131.789476 395.133328,132 396.3,132 C397.41482,132 398.438884,131.776318 399.372222,131.328947 C400.30556,130.881577 401.115737,130.164479 401.802778,129.177632 C402.489818,128.190785 403.027776,126.907903 403.416667,125.328947 C403.805558,123.749992 404,121.828959 404,119.565789 C404,117.407884 403.844446,115.592113 403.533333,114.118421 C403.222221,112.644729 402.787966,111.453952 402.230556,110.546053 C401.673145,109.638153 401.005559,108.986844 400.227778,108.592105 C399.449996,108.197366 398.581486,108 397.622222,108 C395.85925,108 394.407413,108.328944 393.266667,108.986842 C392.12592,109.64474 391.037042,110.605257 390,111.868421 L390,129.236842 Z M463,99 L463,140.361823 L455.238298,140.361823 C453.675169,140.361823 452.651066,139.670472 452.165957,138.287749 L451.438298,135.894587 C450.629783,136.665721 449.794331,137.36372 448.931915,137.988604 C448.069499,138.613488 447.146459,139.145297 446.162766,139.584046 C445.179073,140.022794 444.114545,140.36847 442.969149,140.621083 C441.823753,140.873695 440.577312,141 439.229787,141 C436.938996,141 434.911002,140.607791 433.145745,139.823362 C431.380488,139.038932 429.891495,137.942077 428.678723,136.532764 C427.465951,135.12345 426.549648,133.461548 425.929787,131.547009 C425.309926,129.632469 425,127.531825 425,125.245014 L425,99 L437.531915,99 L437.531915,125.245014 C437.531915,127.292508 438.003541,128.874638 438.946809,129.991453 C439.890076,131.108268 441.278005,131.666667 443.110638,131.666667 C444.485113,131.666667 445.77198,131.38082 446.971277,130.809117 C448.170573,130.237414 449.336165,129.459644 450.468085,128.475783 L450.468085,99 L463,99 Z M488.243243,141 C486.243233,141 484.479737,140.714183 482.952703,140.142541 C481.425668,139.570898 480.141897,138.759976 479.101351,137.709749 C478.060806,136.659522 477.270273,135.389963 476.72973,133.901034 C476.189186,132.412105 475.918919,130.750378 475.918919,128.915805 L475.918919,107.539143 L472.351351,107.539143 C471.702699,107.539143 471.148651,107.333089 470.689189,106.920975 C470.229727,106.508861 470,105.903992 470,105.106352 L470,100.28065 L476.689189,99.0044313 L479.162162,88.9143279 C479.486488,87.6381029 480.405398,87 481.918919,87 L488.486486,87 L488.486486,99.084195 L498.905405,99.084195 L498.905405,107.539143 L488.486486,107.539143 L488.486486,128.078287 C488.486486,129.035455 488.722971,129.826437 489.195946,130.451256 C489.668921,131.076074 490.351347,131.388479 491.243243,131.388479 C491.702705,131.388479 492.087836,131.34195 492.398649,131.248892 C492.709461,131.155834 492.979729,131.049484 493.209459,130.929838 C493.43919,130.810191 493.655404,130.703841 493.858108,130.610783 C494.060812,130.517725 494.297296,130.471196 494.567568,130.471196 C494.945948,130.471196 495.249999,130.557606 495.47973,130.730428 C495.709461,130.90325 495.945945,131.175774 496.189189,131.548006 L500,137.410635 C498.37837,138.607096 496.554064,139.504428 494.527027,140.102659 C492.49999,140.700889 490.405416,141 488.243243,141 Z M514.361963,122.73246 C514.760738,126.218602 515.81083,128.746016 517.51227,130.31478 C519.21371,131.883544 521.40694,132.667914 524.092025,132.667914 C525.527615,132.667914 526.763798,132.493609 527.800613,132.144995 C528.837428,131.796381 529.761243,131.407548 530.572086,130.978485 C531.382928,130.549421 532.127297,130.160588 532.805215,129.811974 C533.483132,129.46336 534.19427,129.289055 534.93865,129.289055 C535.922295,129.289055 536.666664,129.651072 537.171779,130.375117 L540.760736,134.840037 C539.484656,136.314943 538.108903,137.514963 536.633436,138.440131 C535.157968,139.365299 533.642646,140.089333 532.087423,140.612254 C530.532201,141.135176 528.977002,141.497193 527.421779,141.698316 C525.866557,141.89944 524.384465,142 522.97546,142 C520.077695,142 517.35942,141.524015 514.820552,140.57203 C512.281685,139.620045 510.06187,138.205497 508.161043,136.328344 C506.260215,134.451191 504.758185,132.118193 503.654908,129.32928 C502.55163,126.540366 502,123.295622 502,119.594949 C502,116.806035 502.471877,114.164652 503.415644,111.67072 C504.359412,109.176788 505.715226,106.991278 507.483129,105.114125 C509.251031,103.236972 511.391092,101.74868 513.903374,100.649205 C516.415657,99.5497295 519.253563,99 522.417178,99 C525.155433,99 527.661032,99.4290571 529.934049,100.287184 C532.207067,101.145311 534.161035,102.392259 535.796012,104.028064 C537.43099,105.663868 538.707051,107.66837 539.624233,110.041628 C540.541416,112.414886 541,115.103197 541,118.106642 C541,119.045218 540.960123,119.809476 540.880368,120.399439 C540.800613,120.989401 540.654398,121.458682 540.441718,121.807297 C540.229038,122.155911 539.943253,122.397255 539.584356,122.531338 C539.225458,122.66542 538.766874,122.73246 538.208589,122.73246 L514.361963,122.73246 Z M530,115 C530,113.993192 529.876944,113.01361 529.630829,112.061224 C529.384714,111.108839 528.983163,110.258507 528.426166,109.510204 C527.869168,108.761901 527.13731,108.156465 526.23057,107.693878 C525.32383,107.23129 524.222804,107 522.927461,107 C520.647657,107 518.86011,107.687068 517.564767,109.061224 C516.269424,110.435381 515.41451,112.414953 515,115 L530,115 Z M560.458967,106.152318 C561.723411,103.927141 563.178816,102.178814 564.825228,100.907285 C566.471639,99.6357552 568.361691,99 570.495441,99 C572.339422,99 573.840926,99.4370817 575,100.311258 L574.209726,109.370861 C574.078014,109.953645 573.86069,110.350992 573.557751,110.562914 C573.254811,110.774835 572.839922,110.880795 572.31307,110.880795 C572.102329,110.880795 571.825736,110.86755 571.483283,110.84106 C571.140829,110.814569 570.78521,110.781457 570.416413,110.741722 C570.047617,110.701987 569.672241,110.662252 569.290274,110.622517 C568.908306,110.582781 568.559272,110.562914 568.243161,110.562914 C566.451865,110.562914 565.022802,111.03973 563.955927,111.993377 C562.889052,112.947025 561.986832,114.271515 561.24924,115.966887 L561.24924,141 L549,141 L549,99.794702 L556.270517,99.794702 C556.876396,99.794702 557.383483,99.8476816 557.791793,99.9536424 C558.200103,100.059603 558.542552,100.225164 558.819149,100.450331 C559.095746,100.675498 559.306484,100.973508 559.451368,101.344371 C559.596252,101.715234 559.721377,102.16556 559.826748,102.695364 L560.458967,106.152318 Z M633.827789,94.3626595 C633.426612,94.9966452 633.005384,95.4721274 632.56409,95.7891202 C632.122796,96.1061131 631.554472,96.2646071 630.8591,96.2646071 C630.243963,96.2646071 629.582032,96.0730935 628.873288,95.6900604 C628.164543,95.3070274 627.362203,94.8777727 626.466243,94.4022834 C625.570283,93.9267941 624.547299,93.4975394 623.39726,93.1145064 C622.247222,92.7314733 620.936733,92.5399597 619.465753,92.5399597 C616.924971,92.5399597 615.032785,93.0748771 613.789139,94.144728 C612.545493,95.2145789 611.923679,96.6608371 611.923679,98.483546 C611.923679,99.6458531 612.298105,100.610025 613.046967,101.376091 C613.795829,102.142157 614.778696,102.802549 615.995597,103.357287 C617.212498,103.912024 618.603221,104.420526 620.167808,104.882807 C621.732395,105.345088 623.33039,105.860194 624.96184,106.42814 C626.593289,106.996085 628.191284,107.663081 629.755871,108.429147 C631.320458,109.195213 632.711181,110.172593 633.928082,111.361316 C635.144983,112.55004 636.12785,113.996298 636.876712,115.700134 C637.625575,117.403971 638,119.45779 638,121.861652 C638,124.529675 637.531968,127.025957 636.59589,129.350571 C635.659813,131.675185 634.30252,133.702588 632.523973,135.432841 C630.745425,137.163093 628.552361,138.523501 625.944716,139.514103 C623.337071,140.504706 620.375098,141 617.058708,141 C615.240043,141 613.387974,140.81509 611.502446,140.445265 C609.616918,140.07544 607.791594,139.553731 606.026419,138.880121 C604.261244,138.206511 602.603074,137.407437 601.051859,136.482874 C599.500645,135.558312 598.150038,134.528101 597,133.39221 L601.011742,127.131632 C601.332683,126.682559 601.753911,126.306135 602.27544,126.002351 C602.796969,125.698566 603.365294,125.546676 603.980431,125.546676 C604.782783,125.546676 605.591809,125.797625 606.407534,126.29953 C607.223259,126.801435 608.14595,127.356164 609.175636,127.963734 C610.205322,128.571304 611.388773,129.126033 612.726027,129.627938 C614.063281,130.129844 615.641217,130.380792 617.459883,130.380792 C619.92043,130.380792 621.832674,129.845875 623.196673,128.776024 C624.560672,127.706173 625.242661,126.008966 625.242661,123.684352 C625.242661,122.337132 624.868236,121.240882 624.119374,120.395567 C623.370512,119.550253 622.387645,118.850238 621.170744,118.2955 C619.953843,117.740763 618.569806,117.252073 617.018591,116.829416 C615.467376,116.406759 613.876068,115.93788 612.244618,115.422767 C610.613169,114.907654 609.02186,114.273677 607.470646,113.520819 C605.919431,112.767961 604.535394,111.777374 603.318493,110.549026 C602.101592,109.320679 601.118725,107.78857 600.369863,105.952653 C599.621001,104.116736 599.246575,101.851592 599.246575,99.1571525 C599.246575,96.9910346 599.687863,94.8777806 600.57045,92.8173271 C601.453038,90.7568735 602.750155,88.9209841 604.46184,87.3096038 C606.173525,85.6982234 608.272982,84.4104593 610.760274,83.4462727 C613.247566,82.4820861 616.095874,82 619.305284,82 C621.097204,82 622.842294,82.1386823 624.540607,82.416051 C626.238919,82.6934198 627.850286,83.1028628 629.374755,83.6443922 C630.899225,84.1859217 632.323379,84.8331057 633.64726,85.5859637 C634.971142,86.3388218 636.154594,87.1907273 637.197652,88.1417058 L633.827789,94.3626595 Z M676.423841,109.538821 C676.052978,109.994701 675.695366,110.356718 675.350993,110.624883 C675.006621,110.893048 674.516559,111.027128 673.880795,111.027128 C673.27152,111.027128 672.721857,110.87964 672.231788,110.584659 C671.741719,110.289677 671.192056,109.96118 670.582781,109.599158 C669.973507,109.237136 669.258282,108.908639 668.437086,108.613658 C667.61589,108.318676 666.596033,108.171188 665.377483,108.171188 C663.867542,108.171188 662.562919,108.452757 661.463576,109.015903 C660.364233,109.579049 659.456957,110.383531 658.741722,111.429373 C658.026486,112.475216 657.49669,113.755683 657.152318,115.270814 C656.807945,116.785945 656.635762,118.495469 656.635762,120.399439 C656.635762,124.395093 657.397343,127.465533 658.92053,129.610851 C660.443716,131.756169 662.543033,132.828812 665.218543,132.828812 C666.649014,132.828812 667.781453,132.647803 668.615894,132.285781 C669.450335,131.923759 670.158937,131.521518 670.741722,131.079046 C671.324506,130.636574 671.860925,130.227629 672.350993,129.852198 C672.841062,129.476768 673.45695,129.289055 674.198675,129.289055 C675.178813,129.289055 675.920527,129.651072 676.423841,130.375117 L680,134.840037 C678.72847,136.314943 677.390735,137.514963 675.986755,138.440131 C674.582774,139.365299 673.145703,140.089333 671.675497,140.612254 C670.205291,141.135176 668.728484,141.497193 667.245033,141.698316 C665.761582,141.89944 664.317888,142 662.913907,142 C660.397338,142 657.993389,141.517311 655.701987,140.551918 C653.410585,139.586525 651.39736,138.185385 649.662252,136.348457 C647.927144,134.511528 646.549674,132.252274 645.529801,129.570627 C644.509929,126.888979 644,123.831947 644,120.399439 C644,117.395994 644.443704,114.58701 645.331126,111.972404 C646.218547,109.357798 647.529793,107.09184 649.264901,105.174462 C651.000009,103.257084 653.145683,101.74868 655.701987,100.649205 C658.258291,99.5497295 661.218526,99 664.582781,99 C667.814586,99 670.648994,99.5229134 673.086093,100.568756 C675.523191,101.614598 677.721845,103.143114 679.682119,105.15435 L676.423841,109.538821 Z M699,99 L699,140 L687,140 L687,99 L699,99 Z M700,88.038674 C700,88.9926383 699.799467,89.8885778 699.398396,90.7265193 C698.997324,91.5644609 698.449201,92.2992602 697.754011,92.9309392 C697.05882,93.5626183 696.250005,94.0653757 695.32754,94.4392265 C694.405076,94.8130774 693.422465,95 692.379679,95 C691.363631,95 690.414443,94.8130774 689.532086,94.4392265 C688.649728,94.0653757 687.86765,93.5626183 687.185829,92.9309392 C686.504007,92.2992602 685.969253,91.5644609 685.581551,90.7265193 C685.193848,89.8885778 685,88.9926383 685,88.038674 C685,87.058927 685.193848,86.1436507 685.581551,85.2928177 C685.969253,84.4419847 686.504007,83.6942942 687.185829,83.0497238 C687.86765,82.4051533 688.649728,81.9023959 689.532086,81.5414365 C690.414443,81.180477 691.363631,81 692.379679,81 C693.422465,81 694.405076,81.180477 695.32754,81.5414365 C696.250005,81.9023959 697.05882,82.4051533 697.754011,83.0497238 C698.449201,83.6942942 698.997324,84.4419847 699.398396,85.2928177 C699.799467,86.1436507 700,87.058927 700,88.038674 Z M719.361963,122.73246 C719.760738,126.218602 720.81083,128.746016 722.51227,130.31478 C724.21371,131.883544 726.40694,132.667914 729.092025,132.667914 C730.527615,132.667914 731.763798,132.493609 732.800613,132.144995 C733.837428,131.796381 734.761243,131.407548 735.572086,130.978485 C736.382928,130.549421 737.127297,130.160588 737.805215,129.811974 C738.483132,129.46336 739.19427,129.289055 739.93865,129.289055 C740.922295,129.289055 741.666664,129.651072 742.171779,130.375117 L745.760736,134.840037 C744.484656,136.314943 743.108903,137.514963 741.633436,138.440131 C740.157968,139.365299 738.642646,140.089333 737.087423,140.612254 C735.532201,141.135176 733.977002,141.497193 732.421779,141.698316 C730.866557,141.89944 729.384465,142 727.97546,142 C725.077695,142 722.35942,141.524015 719.820552,140.57203 C717.281685,139.620045 715.06187,138.205497 713.161043,136.328344 C711.260215,134.451191 709.758185,132.118193 708.654908,129.32928 C707.55163,126.540366 707,123.295622 707,119.594949 C707,116.806035 707.471877,114.164652 708.415644,111.67072 C709.359412,109.176788 710.715226,106.991278 712.483129,105.114125 C714.251031,103.236972 716.391092,101.74868 718.903374,100.649205 C721.415657,99.5497295 724.253563,99 727.417178,99 C730.155433,99 732.661032,99.4290571 734.934049,100.287184 C737.207067,101.145311 739.161035,102.392259 740.796012,104.028064 C742.43099,105.663868 743.707051,107.66837 744.624233,110.041628 C745.541416,112.414886 746,115.103197 746,118.106642 C746,119.045218 745.960123,119.809476 745.880368,120.399439 C745.800613,120.989401 745.654398,121.458682 745.441718,121.807297 C745.229038,122.155911 744.943253,122.397255 744.584356,122.531338 C744.225458,122.66542 743.766874,122.73246 743.208589,122.73246 L719.361963,122.73246 Z M735,115 C735,113.993192 734.876944,113.01361 734.630829,112.061224 C734.384714,111.108839 733.983163,110.258507 733.426166,109.510204 C732.869168,108.761901 732.13731,108.156465 731.23057,107.693878 C730.32383,107.23129 729.222804,107 727.927461,107 C725.647657,107 723.86011,107.687068 722.564767,109.061224 C721.269424,110.435381 720.41451,112.414953 720,115 L735,115 Z M765.561702,104.105413 C766.370217,103.36087 767.205669,102.669519 768.068085,102.031339 C768.930501,101.393159 769.853541,100.854703 770.837234,100.415954 C771.820927,99.9772058 772.885455,99.6315302 774.030851,99.3789174 C775.176247,99.1263045 776.422688,99 777.770213,99 C780.061004,99 782.088998,99.3922088 783.854255,100.176638 C785.619512,100.961068 787.108505,102.051275 788.321277,103.447293 C789.534049,104.843312 790.450352,106.505214 791.070213,108.433048 C791.690074,110.360883 792,112.454879 792,114.7151 L792,141 L779.468085,141 L779.468085,114.7151 C779.468085,112.694197 778.996459,111.118714 778.053191,109.988604 C777.109924,108.858494 775.721995,108.293447 773.889362,108.293447 C772.514887,108.293447 771.22802,108.579294 770.028723,109.150997 C768.829427,109.7227 767.663835,110.50047 766.531915,111.48433 L766.531915,141 L754,141 L754,99.6381766 L761.761702,99.6381766 C763.324831,99.6381766 764.348934,100.329528 764.834043,101.712251 L765.561702,104.105413 Z M831.423841,109.538821 C831.052978,109.994701 830.695366,110.356718 830.350993,110.624883 C830.006621,110.893048 829.516559,111.027128 828.880795,111.027128 C828.27152,111.027128 827.721857,110.87964 827.231788,110.584659 C826.741719,110.289677 826.192056,109.96118 825.582781,109.599158 C824.973507,109.237136 824.258282,108.908639 823.437086,108.613658 C822.61589,108.318676 821.596033,108.171188 820.377483,108.171188 C818.867542,108.171188 817.562919,108.452757 816.463576,109.015903 C815.364233,109.579049 814.456957,110.383531 813.741722,111.429373 C813.026486,112.475216 812.49669,113.755683 812.152318,115.270814 C811.807945,116.785945 811.635762,118.495469 811.635762,120.399439 C811.635762,124.395093 812.397343,127.465533 813.92053,129.610851 C815.443716,131.756169 817.543033,132.828812 820.218543,132.828812 C821.649014,132.828812 822.781453,132.647803 823.615894,132.285781 C824.450335,131.923759 825.158937,131.521518 825.741722,131.079046 C826.324506,130.636574 826.860925,130.227629 827.350993,129.852198 C827.841062,129.476768 828.45695,129.289055 829.198675,129.289055 C830.178813,129.289055 830.920527,129.651072 831.423841,130.375117 L835,134.840037 C833.72847,136.314943 832.390735,137.514963 830.986755,138.440131 C829.582774,139.365299 828.145703,140.089333 826.675497,140.612254 C825.205291,141.135176 823.728484,141.497193 822.245033,141.698316 C820.761582,141.89944 819.317888,142 817.913907,142 C815.397338,142 812.993389,141.517311 810.701987,140.551918 C808.410585,139.586525 806.39736,138.185385 804.662252,136.348457 C802.927144,134.511528 801.549674,132.252274 800.529801,129.570627 C799.509929,126.888979 799,123.831947 799,120.399439 C799,117.395994 799.443704,114.58701 800.331126,111.972404 C801.218547,109.357798 802.529793,107.09184 804.264901,105.174462 C806.000009,103.257084 808.145683,101.74868 810.701987,100.649205 C813.258291,99.5497295 816.218526,99 819.582781,99 C822.814586,99 825.648994,99.5229134 828.086093,100.568756 C830.523191,101.614598 832.721845,103.143114 834.682119,105.15435 L831.423841,109.538821 Z M851.361963,122.73246 C851.760738,126.218602 852.81083,128.746016 854.51227,130.31478 C856.21371,131.883544 858.40694,132.667914 861.092025,132.667914 C862.527615,132.667914 863.763798,132.493609 864.800613,132.144995 C865.837428,131.796381 866.761243,131.407548 867.572086,130.978485 C868.382928,130.549421 869.127297,130.160588 869.805215,129.811974 C870.483132,129.46336 871.19427,129.289055 871.93865,129.289055 C872.922295,129.289055 873.666664,129.651072 874.171779,130.375117 L877.760736,134.840037 C876.484656,136.314943 875.108903,137.514963 873.633436,138.440131 C872.157968,139.365299 870.642646,140.089333 869.087423,140.612254 C867.532201,141.135176 865.977002,141.497193 864.421779,141.698316 C862.866557,141.89944 861.384465,142 859.97546,142 C857.077695,142 854.35942,141.524015 851.820552,140.57203 C849.281685,139.620045 847.06187,138.205497 845.161043,136.328344 C843.260215,134.451191 841.758185,132.118193 840.654908,129.32928 C839.55163,126.540366 839,123.295622 839,119.594949 C839,116.806035 839.471877,114.164652 840.415644,111.67072 C841.359412,109.176788 842.715226,106.991278 844.483129,105.114125 C846.251031,103.236972 848.391092,101.74868 850.903374,100.649205 C853.415657,99.5497295 856.253563,99 859.417178,99 C862.155433,99 864.661032,99.4290571 866.934049,100.287184 C869.207067,101.145311 871.161035,102.392259 872.796012,104.028064 C874.43099,105.663868 875.707051,107.66837 876.624233,110.041628 C877.541416,112.414886 878,115.103197 878,118.106642 C878,119.045218 877.960123,119.809476 877.880368,120.399439 C877.800613,120.989401 877.654398,121.458682 877.441718,121.807297 C877.229038,122.155911 876.943253,122.397255 876.584356,122.531338 C876.225458,122.66542 875.766874,122.73246 875.208589,122.73246 L851.361963,122.73246 Z M866,115 C866,113.993192 865.876944,113.01361 865.630829,112.061224 C865.384714,111.108839 864.983163,110.258507 864.426166,109.510204 C863.869168,108.761901 863.13731,108.156465 862.23057,107.693878 C861.32383,107.23129 860.222804,107 858.927461,107 C856.647657,107 854.86011,107.687068 853.564767,109.061224 C852.269424,110.435381 851.41451,112.414953 851,115 L866,115 Z M946.72508,125.427804 C947.046625,125.427804 947.368166,125.487239 947.689711,125.606111 C948.011256,125.724984 948.319398,125.929705 948.614148,126.220282 L954,131.807253 C951.642003,134.845101 948.687853,137.136661 945.13746,138.682001 C941.587067,140.227342 937.386948,141 932.536977,141 C928.088938,141 924.103179,140.253757 920.579582,138.761249 C917.055985,137.268741 914.06834,135.208318 911.616559,132.579919 C909.164779,129.95152 907.282429,126.834471 905.969453,123.228677 C904.656478,119.622883 904,115.706759 904,111.480188 C904,107.174368 904.710068,103.218621 906.130225,99.6128274 C907.550382,96.0070337 909.546611,92.896588 912.118971,90.2813969 C914.691331,87.6662059 917.772758,85.6321989 921.363344,84.179315 C924.95393,82.7264311 928.906195,82 933.220257,82 C935.417482,82 937.487397,82.1915136 939.430064,82.5745467 C941.372732,82.9575797 943.188094,83.4858932 944.876206,84.159503 C946.564317,84.8331128 948.118428,85.6453948 949.538585,86.5963734 C950.958742,87.547352 952.218108,88.5775633 953.31672,89.6870383 L948.734727,95.7494963 C948.439977,96.1193213 948.091642,96.4561212 947.689711,96.759906 C947.287779,97.0636908 946.725084,97.2155809 946.001608,97.2155809 C945.51929,97.2155809 945.063775,97.1099182 944.635048,96.8985897 C944.206322,96.6872611 943.750806,96.4297083 943.268489,96.1259234 C942.786171,95.8221386 942.25697,95.4919427 941.680868,95.1353257 C941.104767,94.7787088 940.421494,94.4485128 939.631029,94.144728 C938.840564,93.8409432 937.916136,93.5833904 936.857717,93.3720618 C935.799298,93.1607332 934.560029,93.0550705 933.139871,93.0550705 C930.889056,93.0550705 928.832539,93.4645135 926.970257,94.2834117 C925.107976,95.1023099 923.500275,96.2976192 922.147106,97.8693754 C920.793937,99.4411317 919.748932,101.369476 919.012058,103.654466 C918.275184,105.939456 917.906752,108.548004 917.906752,111.480188 C917.906752,114.438788 918.315376,117.067148 919.132637,119.365346 C919.949897,121.663544 921.06189,123.598492 922.46865,125.170248 C923.875409,126.742005 925.516604,127.937314 927.392283,128.756212 C929.267962,129.57511 931.277588,129.984553 933.421222,129.984553 C934.653811,129.984553 935.779202,129.925118 936.797428,129.806246 C937.815654,129.687373 938.766877,129.489256 939.651125,129.211887 C940.535374,128.934518 941.36602,128.564699 942.143087,128.102418 C942.920154,127.640136 943.710607,127.052388 944.514469,126.339154 C944.836014,126.074993 945.18435,125.857064 945.559486,125.685359 C945.934621,125.513655 946.323149,125.427804 946.72508,125.427804 Z M972,81 L972,141 L960,141 L960,81 L972,81 Z M1020,99 L1020,140.361823 L1012.2383,140.361823 C1010.67517,140.361823 1009.65107,139.670472 1009.16596,138.287749 L1008.4383,135.894587 C1007.62978,136.665721 1006.79433,137.36372 1005.93191,137.988604 C1005.0695,138.613488 1004.14646,139.145297 1003.16277,139.584046 C1002.17907,140.022794 1001.11454,140.36847 999.969149,140.621083 C998.823753,140.873695 997.577312,141 996.229787,141 C993.938996,141 991.911002,140.607791 990.145745,139.823362 C988.380488,139.038932 986.891495,137.942077 985.678723,136.532764 C984.465951,135.12345 983.549648,133.461548 982.929787,131.547009 C982.309926,129.632469 982,127.531825 982,125.245014 L982,99 L994.531915,99 L994.531915,125.245014 C994.531915,127.292508 995.003541,128.874638 995.946809,129.991453 C996.890076,131.108268 998.278005,131.666667 1000.11064,131.666667 C1001.48511,131.666667 1002.77198,131.38082 1003.97128,130.809117 C1005.17057,130.237414 1006.33616,129.459644 1007.46809,128.475783 L1007.46809,99 L1020,99 Z M1041.52525,103.604098 C1043.14142,102.09715 1044.91245,100.887645 1046.83838,99.9755453 C1048.76432,99.0634455 1050.91245,98.6074025 1053.28283,98.6074025 C1055.65321,98.6074025 1057.80807,99.0832735 1059.74747,100.03503 C1061.68688,100.986786 1063.34343,102.341696 1064.71717,104.099802 C1066.09092,105.857907 1067.14814,107.979498 1067.88889,110.46464 C1068.62963,112.949781 1069,115.725695 1069,118.792465 C1069,122.123612 1068.56903,125.15068 1067.70707,127.873761 C1066.84511,130.596841 1065.62627,132.929931 1064.05051,134.8731 C1062.47474,136.816269 1060.59597,138.323194 1058.41414,139.393919 C1056.23231,140.464645 1053.82156,141 1051.18182,141 C1049.91582,141 1048.78452,140.881032 1047.78788,140.643093 C1046.79124,140.405154 1045.87543,140.068079 1045.0404,139.631857 C1044.20538,139.195636 1043.44445,138.673499 1042.75758,138.065433 C1042.0707,137.457366 1041.40404,136.796435 1040.75758,136.082617 L1040.31313,138.144746 C1040.09764,138.990751 1039.74748,139.572371 1039.26263,139.889623 C1038.77778,140.206875 1038.13132,140.365499 1037.32323,140.365499 L1029,140.365499 L1029,81 L1041.52525,81 L1041.52525,103.604098 Z M1042,129.236842 C1042.90741,130.236847 1043.89259,130.947366 1044.95556,131.368421 C1046.01852,131.789476 1047.09444,132 1048.18333,132 C1049.32408,132 1050.37407,131.782897 1051.33333,131.348684 C1052.2926,130.914472 1053.11574,130.203952 1053.80278,129.217105 C1054.48982,128.230258 1055.02778,126.92764 1055.41667,125.309211 C1055.80556,123.690781 1056,121.69738 1056,119.328947 C1056,117.276306 1055.85093,115.532902 1055.55278,114.098684 C1055.25463,112.664467 1054.81389,111.493426 1054.23056,110.585526 C1053.64722,109.677627 1052.9213,109.019739 1052.05278,108.611842 C1051.18425,108.203945 1050.1926,108 1049.07778,108 C1047.59999,108 1046.31667,108.328944 1045.22778,108.986842 C1044.13888,109.64474 1043.06297,110.605257 1042,111.868421 L1042,129.236842 Z" id="Combined-Shape" fill="url(#linearGradient-1)"></path>
            <text id="Central-Connecticut" font-family="Lato-Light, Lato" font-size="52" font-weight="300" letter-spacing="1.39999998" fill="#3F51B5">
                <tspan x="202.336001" y="51">Central Connecticut State Universit</tspan>
                <tspan x="1041.922" y="51">y</tspan>
            </text>
        </g>
    </g>
</svg>