<?xml version="1.0" encoding="UTF-8"?>
<svg width="501px" height="114px" viewBox="0 0 501 114" version="1.1" xmlns="http://www.w3.org/2000/svg" xmlns:xlink="http://www.w3.org/1999/xlink">
    <!-- Generator: Sketch 42 (36781) - http://www.bohemiancoding.com/sketch -->
    <title>Colored Short</title>
    <desc>Created with Sketch.</desc>
    <defs>
        <linearGradient x1="-3.10556529%" y1="50%" x2="56.0516886%" y2="50%" id="linearGradient-1">
            <stop stop-color="#673AB7" offset="0%"></stop>
            <stop stop-color="#3F51B5" offset="100%"></stop>
        </linearGradient>
    </defs>
    <g id="Page-1" stroke="none" stroke-width="1" fill="none" fill-rule="evenodd">
        <g id="Colored-Short" fill="url(#linearGradient-1)">
            <path d="M76,0 L76,32.7919556 L35.0530612,55.5769764 L76,78.5159501 L76,111 L0,69.1248266 L0,41.7212205 L76,0 Z M96,111 L96,78.2080444 L136.791837,55.4230236 L96,32.4840499 L96,0 L172,41.7212205 L172,69.2787795 L96,111 Z M233.676,37.812 C233.849334,37.812 233.996666,37.8726661 234.118,37.994 L235.158,39.112 C234.39533,39.9266707 233.567671,40.6589967 232.675,41.309 C231.782329,41.9590032 230.803005,42.5136644 229.737,42.973 C228.670995,43.4323356 227.501006,43.7876654 226.227,44.039 C224.952994,44.2903346 223.553341,44.416 222.028,44.416 C219.479987,44.416 217.144344,43.9696711 215.021,43.077 C212.897656,42.1843289 211.073341,40.9190082 209.548,39.281 C208.022659,37.6429918 206.839671,35.6626783 205.999,33.34 C205.158329,31.0173217 204.738,28.4346809 204.738,25.592 C204.738,22.8013194 205.171329,20.2533449 206.038,17.948 C206.904671,15.6426551 208.117992,13.6623416 209.678,12.007 C211.238008,10.3516584 213.109989,9.06900455 215.294,8.159 C217.478011,7.24899545 219.88732,6.794 222.522,6.794 C225.035346,6.794 227.262657,7.1839961 229.204,7.964 C231.145343,8.7440039 232.913325,9.84465956 234.508,11.266 L233.702,12.436 C233.563333,12.644001 233.346668,12.748 233.052,12.748 C232.843999,12.748 232.506002,12.5573352 232.038,12.176 C231.569998,11.7946648 230.920004,11.3743356 230.088,10.915 C229.255996,10.4556644 228.22034,10.0353352 226.981,9.654 C225.74166,9.27266476 224.255342,9.082 222.522,9.082 C220.303322,9.082 218.271009,9.46332952 216.425,10.226 C214.578991,10.9886705 212.993007,12.0806596 211.667,13.502 C210.340993,14.9233404 209.305337,16.6566564 208.56,18.702 C207.814663,20.7473436 207.442,23.0439873 207.442,25.592 C207.442,28.192013 207.818996,30.5146564 208.573,32.56 C209.327004,34.6053436 210.36266,36.3343263 211.68,37.747 C212.99734,39.1596737 214.552991,40.2429962 216.347,40.997 C218.141009,41.7510038 220.07799,42.128 222.158,42.128 C223.47534,42.128 224.649662,42.0413342 225.681,41.868 C226.712338,41.6946658 227.661329,41.4346684 228.528,41.088 C229.394671,40.7413316 230.200663,40.3166692 230.946,39.814 C231.691337,39.3113308 232.427996,38.7220034 233.156,38.046 C233.242667,37.9766663 233.329333,37.9203335 233.416,37.877 C233.502667,37.8336664 233.589333,37.812 233.676,37.812 Z M323.204,37.812 C323.377334,37.812 323.524666,37.8726661 323.646,37.994 L324.686,39.112 C323.92333,39.9266707 323.095671,40.6589967 322.203,41.309 C321.310329,41.9590032 320.331005,42.5136644 319.265,42.973 C318.198995,43.4323356 317.029006,43.7876654 315.755,44.039 C314.480994,44.2903346 313.081341,44.416 311.556,44.416 C309.007987,44.416 306.672344,43.9696711 304.549,43.077 C302.425656,42.1843289 300.601341,40.9190082 299.076,39.281 C297.550659,37.6429918 296.367671,35.6626783 295.527,33.34 C294.686329,31.0173217 294.266,28.4346809 294.266,25.592 C294.266,22.8013194 294.699329,20.2533449 295.566,17.948 C296.432671,15.6426551 297.645992,13.6623416 299.206,12.007 C300.766008,10.3516584 302.637989,9.06900455 304.822,8.159 C307.006011,7.24899545 309.41532,6.794 312.05,6.794 C314.563346,6.794 316.790657,7.1839961 318.732,7.964 C320.673343,8.7440039 322.441325,9.84465956 324.036,11.266 L323.23,12.436 C323.091333,12.644001 322.874668,12.748 322.58,12.748 C322.371999,12.748 322.034002,12.5573352 321.566,12.176 C321.097998,11.7946648 320.448004,11.3743356 319.616,10.915 C318.783996,10.4556644 317.74834,10.0353352 316.509,9.654 C315.26966,9.27266476 313.783342,9.082 312.05,9.082 C309.831322,9.082 307.799009,9.46332952 305.953,10.226 C304.106991,10.9886705 302.521007,12.0806596 301.195,13.502 C299.868993,14.9233404 298.833337,16.6566564 298.088,18.702 C297.342663,20.7473436 296.97,23.0439873 296.97,25.592 C296.97,28.192013 297.346996,30.5146564 298.101,32.56 C298.855004,34.6053436 299.89066,36.3343263 301.208,37.747 C302.52534,39.1596737 304.080991,40.2429962 305.875,40.997 C307.669009,41.7510038 309.60599,42.128 311.686,42.128 C313.00334,42.128 314.177662,42.0413342 315.209,41.868 C316.240338,41.6946658 317.189329,41.4346684 318.056,41.088 C318.922671,40.7413316 319.728663,40.3166692 320.474,39.814 C321.219337,39.3113308 321.955996,38.7220034 322.684,38.046 C322.770667,37.9766663 322.857333,37.9203335 322.944,37.877 C323.030667,37.8336664 323.117333,37.812 323.204,37.812 Z M404.672,11.682 C404.515999,11.9766681 404.290668,12.124 403.996,12.124 C403.770666,12.124 403.480335,11.9636683 403.125,11.643 C402.769665,11.3223317 402.28867,10.9670019 401.682,10.577 C401.07533,10.186998 400.317005,9.82733498 399.407,9.498 C398.496995,9.16866502 397.374673,9.004 396.04,9.004 C394.705327,9.004 393.531005,9.19466476 392.517,9.576 C391.502995,9.95733524 390.65367,10.47733 389.969,11.136 C389.28433,11.79467 388.764335,12.557329 388.409,13.424 C388.053665,14.290671 387.876,15.2006619 387.876,16.154 C387.876,17.4020062 388.140331,18.4333293 388.669,19.248 C389.197669,20.0626707 389.895329,20.7559971 390.762,21.328 C391.628671,21.9000029 392.612328,22.380998 393.713,22.771 C394.813672,23.1610019 395.944661,23.5466648 397.106,23.928 C398.267339,24.3093352 399.398328,24.7296644 400.499,25.189 C401.599672,25.6483356 402.583329,26.2246632 403.45,26.918 C404.316671,27.6113368 405.014331,28.4649949 405.543,29.479 C406.071669,30.4930051 406.336,31.7539925 406.336,33.262 C406.336,34.8046744 406.071669,36.2563265 405.543,37.617 C405.014331,38.9776735 404.247338,40.1606616 403.242,41.166 C402.236662,42.1713384 401.006007,42.9643304 399.55,43.545 C398.093993,44.1256696 396.430009,44.416 394.558,44.416 C392.131321,44.416 390.042675,43.9870043 388.292,43.129 C386.541325,42.2709957 385.00734,41.0966741 383.69,39.606 L384.418,38.462 C384.626001,38.2019987 384.868665,38.072 385.146,38.072 C385.302001,38.072 385.501332,38.175999 385.744,38.384 C385.986668,38.592001 386.281332,38.8476651 386.628,39.151 C386.974668,39.4543348 387.390664,39.7836649 387.876,40.139 C388.361336,40.4943351 388.924663,40.8236651 389.566,41.127 C390.207337,41.4303348 390.943996,41.685999 391.776,41.894 C392.608004,42.102001 393.552661,42.206 394.61,42.206 C396.066007,42.206 397.365994,41.9850022 398.51,41.543 C399.654006,41.1009978 400.620329,40.4986705 401.409,39.736 C402.197671,38.9733295 402.799998,38.0676719 403.216,37.019 C403.632002,35.9703281 403.84,34.848006 403.84,33.652 C403.84,32.3519935 403.575669,31.2816709 403.047,30.441 C402.518331,29.6003291 401.820671,28.8983361 400.954,28.335 C400.087329,27.7716638 399.103672,27.2993352 398.003,26.918 C396.902328,26.5366648 395.771339,26.1640018 394.61,25.8 C393.448661,25.4359982 392.317672,25.0286689 391.217,24.578 C390.116328,24.1273311 389.132671,23.5510035 388.266,22.849 C387.399329,22.1469965 386.701669,21.2716719 386.173,20.223 C385.644331,19.1743281 385.38,17.8613412 385.38,16.284 C385.38,15.0533272 385.613998,13.8660057 386.082,12.722 C386.550002,11.5779943 387.234662,10.5683377 388.136,9.693 C389.037338,8.81766229 390.150993,8.11566931 391.477,7.587 C392.803007,7.05833069 394.315325,6.794 396.014,6.794 C397.920676,6.794 399.632326,7.0973303 401.149,7.704 C402.665674,8.3106697 404.047994,9.23799376 405.296,10.486 L404.672,11.682 Z M483.098,42.102 C484.866009,42.102 486.44766,41.7943364 487.843,41.179 C489.23834,40.5636636 490.421328,39.7100055 491.392,38.618 C492.362672,37.5259945 493.103664,36.2390074 493.615,34.757 C494.126336,33.2749926 494.382,31.6760086 494.382,29.96 L494.382,7.21 L497.034,7.21 L497.034,29.96 C497.034,31.9880101 496.713337,33.8816579 496.072,35.641 C495.430663,37.4003421 494.507673,38.9343268 493.303,40.243 C492.098327,41.5516732 490.633675,42.5786629 488.909,43.324 C487.184325,44.0693371 485.247344,44.442 483.098,44.442 C480.948656,44.442 479.011675,44.0693371 477.287,43.324 C475.562325,42.5786629 474.097673,41.5516732 472.893,40.243 C471.688327,38.9343268 470.765337,37.4003421 470.124,35.641 C469.482663,33.8816579 469.162,31.9880101 469.162,29.96 L469.162,7.21 L471.84,7.21 L471.84,29.934 C471.84,31.6500086 472.095664,33.2489926 472.607,34.731 C473.118336,36.2130074 473.854995,37.4999945 474.817,38.592 C475.779005,39.6840055 476.95766,40.5419969 478.353,41.166 C479.74834,41.7900031 481.329991,42.102 483.098,42.102 Z M242.09477,99.428 C242.382771,99.428 242.670769,99.4819995 242.95877,99.59 C243.246771,99.6980005 243.522769,99.8839987 243.78677,100.148 L248.61077,105.224 C246.498759,107.984014 243.852786,110.065993 240.67277,111.47 C237.492754,112.874007 233.730792,113.576 229.38677,113.576 C225.40275,113.576 221.832786,112.898007 218.67677,111.542 C215.520754,110.185993 212.844781,108.314012 210.64877,105.926 C208.452759,103.537988 206.766776,100.706016 205.59077,97.43 C204.414764,94.1539836 203.82677,90.5960192 203.82677,86.756 C203.82677,82.8439804 204.462764,79.2500164 205.73477,75.974 C207.006776,72.6979836 208.794759,69.8720119 211.09877,67.496 C213.402782,65.1199881 216.162754,63.2720066 219.37877,61.952 C222.594786,60.6319934 226.134751,59.972 229.99877,59.972 C231.96678,59.972 233.820761,60.1459983 235.56077,60.494 C237.300779,60.8420017 238.926762,61.3219969 240.43877,61.934 C241.950778,62.5460031 243.342764,63.2839957 244.61477,64.148 C245.886776,65.0120043 247.014765,65.947995 247.99877,66.956 L243.89477,72.464 C243.630769,72.8000017 243.318772,73.1059986 242.95877,73.382 C242.598768,73.6580014 242.094773,73.796 241.44677,73.796 C241.014768,73.796 240.606772,73.700001 240.22277,73.508 C239.838768,73.315999 239.430772,73.0820014 238.99877,72.806 C238.566768,72.5299986 238.092773,72.2300016 237.57677,71.906 C237.060767,71.5819984 236.448774,71.2820014 235.74077,71.006 C235.032766,70.7299986 234.204775,70.496001 233.25677,70.304 C232.308765,70.111999 231.198776,70.016 229.92677,70.016 C227.91076,70.016 226.068778,70.3879963 224.40077,71.132 C222.732762,71.8760037 221.292776,72.9619929 220.08077,74.39 C218.868764,75.8180071 217.932773,77.5699896 217.27277,79.646 C216.612767,81.7220104 216.28277,84.0919867 216.28277,86.756 C216.28277,89.4440134 216.648766,91.8319896 217.38077,93.92 C218.112774,96.0080104 219.108764,97.7659929 220.36877,99.194 C221.628776,100.622007 223.098762,101.707996 224.77877,102.452 C226.458778,103.196004 228.25876,103.568 230.17877,103.568 C231.282776,103.568 232.290765,103.514001 233.20277,103.406 C234.114775,103.297999 234.966766,103.118001 235.75877,102.866 C236.550774,102.613999 237.294767,102.278002 237.99077,101.858 C238.686774,101.437998 239.394766,100.904003 240.11477,100.256 C240.402771,100.015999 240.714768,99.8180008 241.05077,99.662 C241.386772,99.5059992 241.734768,99.428 242.09477,99.428 Z M284.857231,71.204 C284.49723,71.7800029 284.119233,72.2119986 283.723231,72.5 C283.327229,72.7880014 282.817235,72.932 282.193231,72.932 C281.641229,72.932 281.047235,72.7580017 280.411231,72.41 C279.775228,72.0619983 279.055235,71.6720022 278.251231,71.24 C277.447227,70.8079978 276.529237,70.4180017 275.497231,70.07 C274.465226,69.7219983 273.289238,69.548 271.969231,69.548 C269.68922,69.548 267.991237,70.0339951 266.875231,71.006 C265.759226,71.9780049 265.201231,73.2919917 265.201231,74.948 C265.201231,76.0040053 265.537228,76.8799965 266.209231,77.576 C266.881235,78.2720035 267.763226,78.8719975 268.855231,79.376 C269.947237,79.8800025 271.195224,80.3419979 272.599231,80.762 C274.003238,81.1820021 275.437224,81.6499974 276.901231,82.166 C278.365239,82.6820026 279.799224,83.2879965 281.203231,83.984 C282.607238,84.6800035 283.855226,85.5679946 284.947231,86.648 C286.039237,87.7280054 286.921228,89.0419923 287.593231,90.59 C288.265235,92.1380077 288.601231,94.0039891 288.601231,96.188 C288.601231,98.6120121 288.181236,100.879989 287.341231,102.992 C286.501227,105.104011 285.283239,106.945992 283.687231,108.518 C282.091223,110.090008 280.123243,111.325995 277.783231,112.226 C275.44322,113.126004 272.785246,113.576 269.809231,113.576 C268.177223,113.576 266.51524,113.408002 264.823231,113.072 C263.131223,112.735998 261.493239,112.262003 259.909231,111.65 C258.325224,111.037997 256.837238,110.312004 255.445231,109.472 C254.053225,108.631996 252.841237,107.696005 251.809231,106.664 L255.409231,100.976 C255.697233,100.567998 256.075229,100.226001 256.543231,99.95 C257.011234,99.6739986 257.521229,99.536 258.073231,99.536 C258.793235,99.536 259.519228,99.7639977 260.251231,100.22 C260.983235,100.676002 261.811227,101.179997 262.735231,101.732 C263.659236,102.284003 264.721225,102.787998 265.921231,103.244 C267.121237,103.700002 268.537223,103.928 270.169231,103.928 C272.377243,103.928 274.093225,103.442005 275.317231,102.47 C276.541238,101.497995 277.153231,99.9560106 277.153231,97.844 C277.153231,96.6199939 276.817235,95.6240038 276.145231,94.856 C275.473228,94.0879962 274.591237,93.4520025 273.499231,92.948 C272.407226,92.4439975 271.165238,92.0000019 269.773231,91.616 C268.381225,91.2319981 266.953239,90.8060023 265.489231,90.338 C264.025224,89.8699977 262.597238,89.2940034 261.205231,88.61 C259.813225,87.9259966 258.571237,87.0260056 257.479231,85.91 C256.387226,84.7939944 255.505235,83.4020083 254.833231,81.734 C254.161228,80.0659917 253.825231,78.0080122 253.825231,75.56 C253.825231,73.5919902 254.221228,71.6720094 255.013231,69.8 C255.805235,67.9279906 256.969224,66.2600073 258.505231,64.796 C260.041239,63.3319927 261.92522,62.1620044 264.157231,61.286 C266.389243,60.4099956 268.945217,59.972 271.825231,59.972 C273.43324,59.972 274.999224,60.0979987 276.523231,60.35 C278.047239,60.6020013 279.493225,60.9739975 280.861231,61.466 C282.229238,61.9580025 283.507226,62.5459966 284.695231,63.23 C285.883237,63.9140034 286.945227,64.6879957 287.881231,65.552 L284.857231,71.204 Z M351.626154,99.428 C351.914156,99.428 352.202153,99.4819995 352.490154,99.59 C352.778156,99.6980005 353.054153,99.8839987 353.318154,100.148 L358.142154,105.224 C356.030144,107.984014 353.38417,110.065993 350.204154,111.47 C347.024138,112.874007 343.262176,113.576 338.918154,113.576 C334.934134,113.576 331.36417,112.898007 328.208154,111.542 C325.052139,110.185993 322.376165,108.314012 320.180154,105.926 C317.984143,103.537988 316.29816,100.706016 315.122154,97.43 C313.946148,94.1539836 313.358154,90.5960192 313.358154,86.756 C313.358154,82.8439804 313.994148,79.2500164 315.266154,75.974 C316.538161,72.6979836 318.326143,69.8720119 320.630154,67.496 C322.934166,65.1199881 325.694138,63.2720066 328.910154,61.952 C332.12617,60.6319934 335.666135,59.972 339.530154,59.972 C341.498164,59.972 343.352146,60.1459983 345.092154,60.494 C346.832163,60.8420017 348.458147,61.3219969 349.970154,61.934 C351.482162,62.5460031 352.874148,63.2839957 354.146154,64.148 C355.418161,65.0120043 356.546149,65.947995 357.530154,66.956 L353.426154,72.464 C353.162153,72.8000017 352.850156,73.1059986 352.490154,73.382 C352.130153,73.6580014 351.626158,73.796 350.978154,73.796 C350.546152,73.796 350.138156,73.700001 349.754154,73.508 C349.370152,73.315999 348.962156,73.0820014 348.530154,72.806 C348.098152,72.5299986 347.624157,72.2300016 347.108154,71.906 C346.592152,71.5819984 345.980158,71.2820014 345.272154,71.006 C344.564151,70.7299986 343.736159,70.496001 342.788154,70.304 C341.84015,70.111999 340.730161,70.016 339.458154,70.016 C337.442144,70.016 335.600163,70.3879963 333.932154,71.132 C332.264146,71.8760037 330.82416,72.9619929 329.612154,74.39 C328.400148,75.8180071 327.464158,77.5699896 326.804154,79.646 C326.144151,81.7220104 325.814154,84.0919867 325.814154,86.756 C325.814154,89.4440134 326.180151,91.8319896 326.912154,93.92 C327.644158,96.0080104 328.640148,97.7659929 329.900154,99.194 C331.160161,100.622007 332.630146,101.707996 334.310154,102.452 C335.990163,103.196004 337.790145,103.568 339.710154,103.568 C340.81416,103.568 341.82215,103.514001 342.734154,103.406 C343.646159,103.297999 344.49815,103.118001 345.290154,102.866 C346.082158,102.613999 346.826151,102.278002 347.522154,101.858 C348.218158,101.437998 348.926151,100.904003 349.646154,100.256 C349.934156,100.015999 350.246153,99.8180008 350.582154,99.662 C350.918156,99.5059992 351.266153,99.428 351.626154,99.428 Z M397.016616,103.28 L397.016616,113 L365.408616,113 L365.408616,60.548 L377.576616,60.548 L377.576616,103.28 L397.016616,103.28 Z M425.955077,103.388 C427.587085,103.388 429.045071,103.118003 430.329077,102.578 C431.613084,102.037997 432.699073,101.264005 433.587077,100.256 C434.475082,99.247995 435.153075,98.0180073 435.621077,96.566 C436.089079,95.1139927 436.323077,93.4640092 436.323077,91.616 L436.323077,60.548 L448.491077,60.548 L448.491077,91.616 C448.491077,94.8320161 447.969082,97.7839866 446.925077,100.472 C445.881072,103.160013 444.387087,105.47599 442.443077,107.42 C440.499067,109.36401 438.135091,110.875995 435.351077,111.956 C432.567063,113.036005 429.435095,113.576 425.955077,113.576 C422.45106,113.576 419.307091,113.036005 416.523077,111.956 C413.739063,110.875995 411.375087,109.36401 409.431077,107.42 C407.487067,105.47599 405.999082,103.160013 404.967077,100.472 C403.935072,97.7839866 403.419077,94.8320161 403.419077,91.616 L403.419077,60.548 L415.587077,60.548 L415.587077,91.58 C415.587077,93.4280092 415.821075,95.0779927 416.289077,96.53 C416.757079,97.9820073 417.435073,99.2179949 418.323077,100.238 C419.211082,101.258005 420.297071,102.037997 421.581077,102.578 C422.865084,103.118003 424.323069,103.388 425.955077,103.388 Z M479.229539,60.548 C482.853557,60.548 485.937526,60.8839966 488.481539,61.556 C491.025551,62.2280034 493.101531,63.1759939 494.709539,64.4 C496.317547,65.6240061 497.487535,67.1119912 498.219539,68.864 C498.951542,70.6160088 499.317539,72.5719892 499.317539,74.732 C499.317539,75.9080059 499.14954,77.0419945 498.813539,78.134 C498.477537,79.2260055 497.949542,80.2459953 497.229539,81.194 C496.509535,82.1420047 495.585544,83.011996 494.457539,83.804 C493.329533,84.596004 491.973546,85.2799971 490.389539,85.856 C493.845556,86.6960042 496.40153,88.0519906 498.057539,89.924 C499.713547,91.7960094 500.541539,94.2199851 500.541539,97.196 C500.541539,99.4280112 500.109543,101.50399 499.245539,103.424 C498.381534,105.34401 497.115547,107.017993 495.447539,108.446 C493.77953,109.874007 491.721551,110.989996 489.273539,111.794 C486.825526,112.598004 484.029554,113 480.885539,113 L459.933539,113 L459.933539,60.548 L479.229539,60.548 Z M480.669539,103.82 C482.277547,103.82 483.591533,103.616002 484.611539,103.208 C485.631544,102.799998 486.429536,102.272003 487.005539,101.624 C487.581541,100.975997 487.977537,100.244004 488.193539,99.428 C488.40954,98.6119959 488.517539,97.7840042 488.517539,96.944 C488.517539,95.9839952 488.39154,95.1200038 488.139539,94.352 C487.887537,93.5839962 487.455542,92.9360026 486.843539,92.408 C486.231536,91.8799974 485.421544,91.4720014 484.413539,91.184 C483.405534,90.8959986 482.133546,90.752 480.597539,90.752 L472.101539,90.752 L472.101539,103.82 L480.669539,103.82 Z M472.101539,69.656 L472.101539,82.616 L478.437539,82.616 C479.781545,82.616 480.993533,82.520001 482.073539,82.328 C483.153544,82.135999 484.071535,81.8000024 484.827539,81.32 C485.583542,80.8399976 486.159537,80.1800042 486.555539,79.34 C486.951541,78.4999958 487.149539,77.4440064 487.149539,76.172 C487.149539,74.9239938 486.99354,73.8860041 486.681539,73.058 C486.369537,72.2299959 485.889542,71.5640025 485.241539,71.06 C484.593535,70.5559975 483.771544,70.1960011 482.775539,69.98 C481.779534,69.7639989 480.597545,69.656 479.229539,69.656 L472.101539,69.656 Z" id="Combined-Shape"></path>
        </g>
    </g>
</svg>